<svg width="48" height="48" viewBox="0 0 14 14" xmlns="http://www.w3.org/2000/svg"><path d="m33.35 30q-.75.0-1.225-.475T31.65 28.3v-8.6q0-.75.475-1.225T33.35 18h6.95q.75.0 1.225.475T42 19.7V22h-2.4v-1.6h-5.55v7.2h5.55V26H42v2.3q0 .75-.475 1.225T40.3 30zM19 30V18h8.65q.75.0 1.225.475t.475 1.225v2.6q0 .75-.475 1.225T27.65 24q.75.0 1.225.475t.475 1.225v2.6q0 .75-.475 1.225T27.65 30zm2.4-7.2h5.55v-2.4H21.4zm0 4.8h5.55v-2.4H21.4zM6 30V19.7q0-.75.475-1.225T7.7 18h6.95q.75.0 1.225.475t.475 1.225V30h-2.4v-3.85H8.4V30zm2.4-6.25h5.55V20.4H8.4z"/><path d="m10.636 14q-.29167.0-.47639-.18472t-.18472-.47639v-3.3444q0-.29167.18472-.47639t.47639-.18472h2.7028q.29167.0.47639.18472t.18472.47639v.42778q0 .19444-.13611.33056-.13611.13611-.33056.13611-.19444.0-.33055-.13611t-.13611-.33056v-.15556h-2.1583v2.8h2.1583v-.15556q0-.19444.13611-.33056.13611-.13611.33055-.13611.19445.0.33056.13611t.13611.33056v.42778q0 .29167-.18472.47639t-.47639.18472zm-4.9972.0q-.25278.0-.41806-.16528t-.16528-.41806v-3.5q0-.25278.16528-.41806t.41806-.16528h2.7806q.29167.0.47639.18472t.18472.47639v1.0111q0 .29167-.18472.47639t-.47639.18472q.29167.0.47639.18472t.18472.47639v1.0111q0 .29167-.18472.47639t-.47639.18472zm.35-2.8h2.1583v-.93333H5.9888zm0 1.8667h2.1583v-.93333H5.9888zm-5.5222.93333q-.19444.0-.33056-.13611-.13611-.13611-.13611-.33056v-3.5389q0-.29167.18472-.47639t.47639-.18472h2.7028q.29167.0.47639.18472t.18472.47639v3.5389q0 .19444-.13611.33056-.13611.13611-.33056.13611-.19444.0-.33056-.13611-.13611-.13611-.13611-.33056v-1.0306h-2.1583v1.0306q0 .19444-.13611.33056-.13611.13611-.33056.13611zm.46667-2.4306h2.1583v-1.3028h-2.1583z" stroke-width=".38889"/><g stroke-width=".6125"><path d="m5.3958 7.2857c0 .67681-.686 1.225-1.5312 1.225s-1.5313-.54819-1.5313-1.225c0-.6762.686-1.225 1.5313-1.225s1.5312.5488 1.5312 1.225zm5.5125-1.225c0 .67681-.686 1.225-1.5312 1.225-.84525.0-1.5312-.54819-1.5312-1.225s.686-1.225 1.5312-1.225c.84525.0 1.5312.54819 1.5312 1.225z"/><path d="m10.296 6.0607V.5482h.6125v5.5125zm-4.9-4.9v6.125h-.6125v-6.125z" fill-rule="evenodd"/><path d="m4.7833 1.1025a.6125.6125.0 01.55125-.60944l4.9-.49a.6125.6125.0 01.67375.60944v.54819l-6.125.6125z"/></g></svg>